<?xml version="1.0" encoding="iso-8859-1"?>
<!-- Generator: Adobe Illustrator 15.0.1, SVG Export Plug-In . SVG Version: 6.00 Build 0)  -->
<!DOCTYPE svg PUBLIC "-//W3C//DTD SVG 1.1//EN" "http://www.w3.org/Graphics/SVG/1.1/DTD/svg11.dtd">
<svg version="1.1" id="Layer_1" xmlns="http://www.w3.org/2000/svg" xmlns:xlink="http://www.w3.org/1999/xlink" x="0px" y="0px"
	 width="53.827px" height="25.077px" viewBox="0 0 53.827 25.077" style="enable-background:new 0 0 53.827 25.077;"
	 xml:space="preserve">
<rect x="49.479" y="0" style="fill:#1689CA;" width="4.348" height="4.347"/>
<rect x="49.479" y="6.093" style="fill:#0D9C4A;" width="4.348" height="4.347"/>
<rect x="49.479" y="12.101" style="fill:#F68B1F;" width="4.348" height="4.347"/>
<rect x="0" y="0.028" style="fill:none;" width="48.249" height="16.429"/>
<rect x="0" y="0.028" style="fill:none;" width="48.249" height="16.429"/>
<g>
	<polygon style="fill:#58595B;" points="48.248,0.028 48.248,3.474 37.621,3.474 37.621,6.364 47.079,6.364 47.079,10.129 
		37.621,10.129 37.621,13.014 48.241,13.014 48.241,16.457 32.595,16.457 32.595,14.56 32.595,14.559 32.595,9.491 32.595,4.42 
		32.595,2.765 32.595,0.028 	"/>
	<path style="fill:#58595B;" d="M17.658,6.532c-0.404-0.668-0.643-1.478-0.643-2.464c0-0.043,0.004-0.087,0.004-0.137
		c0.041-1.714,0.827-2.994,1.991-3.902h11.802c0.837,0.693,1.471,1.6,1.782,2.737V4.42h-4.809c0.08-1.729-1.595-2.324-3.108-2.324
		c-1.081,0-2.433,0.378-2.433,1.651c0,1.512,2.784,1.756,5.596,2.538c2.036,0.574,3.898,1.43,4.754,3.207v5.067v0.001
		c-0.318,0.762-0.78,1.39-1.353,1.897H18.849c-0.999-0.822-1.723-1.937-2.031-3.388v-0.002c-0.108-0.509-0.165-1.056-0.165-1.648
		h0.733h4.292c0.109,2.27,1.486,2.999,3.648,2.999c1.514,0,3.082-0.54,3.082-1.973c0-1.728-2.757-2.026-5.541-2.808
		C20.892,9.068,18.713,8.277,17.658,6.532"/>
	<path style="fill:#58595B;" d="M17.016,4.067c0,0.987,0.238,1.796,0.642,2.464c0.063,0.525,0.097,1.074,0.097,1.648
		c0,1.186-0.126,2.263-0.369,3.24h-0.733c0,0.591,0.057,1.138,0.165,1.648v0.001c-0.649,1.445-1.631,2.584-2.895,3.389H-0.001V0.028
		h13.83c1.454,0.902,2.534,2.226,3.19,3.903C17.019,3.98,17.016,4.025,17.016,4.067 M12.728,8.15c0-3.54-1.864-5.214-5.324-5.214
		H5.027v10.645h2.377C11.215,13.501,12.728,12.013,12.728,8.15"/>
	<polygon style="fill:#58595B;" points="0,22.179 2.7,22.179 2.7,22.504 0.521,22.504 0.521,23.425 2.552,23.425 2.552,23.75 
		0.521,23.75 0.521,24.751 2.717,24.751 2.717,25.076 0,25.076 	"/>
	<path style="fill:#58595B;" d="M3.369,22.194h1.838c0.742,0,1.189,0.293,1.189,0.76c0,0.352-0.201,0.637-0.677,0.734v0.008
		c0.453,0.063,0.541,0.315,0.584,0.597c0.028,0.28,0.012,0.604,0.231,0.799H5.953c-0.148-0.117-0.066-0.431-0.142-0.714
		c-0.06-0.279-0.148-0.524-0.651-0.524H3.889v1.238h-0.52V22.194z M4.973,23.53c0.481,0,0.903-0.094,0.903-0.518
		c0-0.287-0.207-0.493-0.695-0.493H3.889v1.011H4.973z"/>
	<polygon style="fill:#58595B;" points="7.157,22.194 7.677,22.194 7.677,23.439 9.735,23.439 9.735,22.194 10.256,22.194 
		10.256,25.092 9.735,25.092 9.735,23.766 7.677,23.766 7.677,25.092 7.157,25.092 	"/>
	<polygon style="fill:#58595B;" points="12.687,25.092 12.095,25.092 10.714,22.194 11.28,22.194 12.396,24.707 12.408,24.707 
		13.537,22.194 14.079,22.194 	"/>
	<polygon style="fill:#58595B;" points="14.531,22.194 17.23,22.194 17.23,22.52 15.052,22.52 15.052,23.439 17.082,23.439 
		17.082,23.766 15.052,23.766 15.052,24.767 17.247,24.767 17.247,25.092 14.531,25.092 	"/>
	<path style="fill:#58595B;" d="M17.915,22.194h1.839c0.74,0,1.189,0.293,1.189,0.76c0,0.352-0.203,0.637-0.68,0.734v0.008
		c0.456,0.063,0.542,0.315,0.587,0.597c0.027,0.28,0.011,0.604,0.23,0.799h-0.582c-0.147-0.117-0.064-0.431-0.141-0.714
		c-0.061-0.279-0.149-0.524-0.652-0.524h-1.269v1.238h-0.521V22.194z M19.519,23.53c0.482,0,0.903-0.094,0.903-0.518
		c0-0.287-0.209-0.493-0.694-0.493h-1.292v1.011H19.519z"/>
	<polygon style="fill:#58595B;" points="23.241,25.092 22.649,25.092 21.269,22.194 21.834,22.194 22.951,24.707 22.962,24.707 
		24.091,22.194 24.632,22.194 	"/>
	<path style="fill:#58595B;" d="M27.348,23.068c-0.061-0.398-0.427-0.565-0.969-0.565c-0.443,0-0.876,0.112-0.876,0.473
		c0,0.684,2.501,0.202,2.501,1.292c0,0.589-0.814,0.824-1.526,0.824c-0.877,0-1.615-0.306-1.615-0.976h0.492
		c0,0.464,0.547,0.666,1.138,0.666c0.472,0,0.992-0.105,0.992-0.504c0-0.76-2.501-0.259-2.501-1.276c0-0.557,0.7-0.81,1.418-0.81
		c0.8,0,1.412,0.268,1.44,0.876H27.348z"/>
	<polygon style="fill:#58595B;" points="28.672,22.194 29.191,22.194 29.191,23.639 31.175,22.194 31.848,22.194 30.199,23.363 
		31.913,25.092 31.256,25.092 29.844,23.627 29.191,24.077 29.191,25.092 28.672,25.092 	"/>
	<path style="fill:#58595B;" d="M34.016,22.194c1.243,0,1.872,0.694,1.872,1.448c0,0.757-0.629,1.449-1.872,1.449
		s-1.873-0.692-1.873-1.449C32.143,22.889,32.772,22.194,34.016,22.194 M34.016,24.783c0.953,0,1.354-0.581,1.354-1.141
		c0-0.558-0.4-1.138-1.354-1.138s-1.354,0.58-1.354,1.138C32.662,24.202,33.063,24.783,34.016,24.783"/>
	<polygon style="fill:#58595B;" points="36.555,22.194 37.109,22.194 39.167,24.544 39.178,24.544 39.178,22.194 39.672,22.194 
		39.672,25.092 39.103,25.092 37.059,22.767 37.048,22.767 37.048,25.092 36.555,25.092 	"/>
	<polygon style="fill:#58595B;" points="41.438,22.52 40.135,22.52 40.135,22.194 43.262,22.194 43.262,22.52 41.959,22.52 
		41.959,25.092 41.438,25.092 	"/>
	<path style="fill:#58595B;" d="M44.795,22.194h0.574l1.528,2.897h-0.574l-0.428-0.873h-1.654l-0.438,0.873h-0.536L44.795,22.194z
		 M44.406,23.896h1.324l-0.651-1.352h-0.011L44.406,23.896z"/>
	<polygon style="fill:#58595B;" points="47.318,22.194 47.84,22.194 47.84,23.639 49.82,22.194 50.494,22.194 48.846,23.363 
		50.559,25.092 49.902,25.092 48.489,23.627 47.84,24.077 47.84,25.092 47.318,25.092 	"/>
	<polygon style="fill:#58595B;" points="51.99,22.52 50.688,22.52 50.688,22.194 53.814,22.194 53.814,22.52 52.512,22.52 
		52.512,25.092 51.99,25.092 	"/>
	<path style="fill:#58595B;" d="M0.006,17.802H1.41c1.264,0,1.97,0.471,1.97,1.445c0,1.016-0.602,1.592-1.97,1.592H0.006V17.802z
		 M0.55,20.498h0.906c0.373,0,1.378-0.076,1.378-1.195c0-0.724-0.361-1.162-1.366-1.162H0.55V20.498z"/>
	<polygon style="fill:#58595B;" points="4.331,17.802 7.159,17.802 7.159,18.141 4.876,18.141 4.876,19.107 7.005,19.107 
		7.005,19.447 4.876,19.447 4.876,20.498 7.177,20.498 7.177,20.839 4.331,20.839 	"/>
	<path style="fill:#58595B;" d="M12.374,18.718c-0.063-0.417-0.447-0.59-1.016-0.59c-0.463,0-0.918,0.116-0.918,0.495
		c0,0.713,2.622,0.21,2.622,1.35c0,0.617-0.854,0.866-1.6,0.866c-0.917,0-1.692-0.323-1.692-1.023h0.515
		c0,0.486,0.573,0.698,1.193,0.698c0.495,0,1.04-0.109,1.04-0.528c0-0.795-2.622-0.271-2.622-1.336c0-0.583,0.734-0.847,1.486-0.847
		c0.838,0,1.479,0.28,1.509,0.915H12.374z"/>
	<polygon style="fill:#58595B;" points="14.938,18.141 13.572,18.141 13.572,17.802 16.849,17.802 16.849,18.141 15.483,18.141 
		15.483,20.839 14.938,20.839 	"/>
	<path style="fill:#58595B;" d="M20.859,19.694c0,0.754-0.586,1.145-1.612,1.145c-1.056,0-1.681-0.354-1.681-1.145v-1.892h0.545
		v1.892c0,0.527,0.406,0.812,1.136,0.812c0.694,0,1.067-0.284,1.067-0.812v-1.892h0.545V19.694z"/>
	<path style="fill:#58595B;" d="M22.018,17.802h1.405c1.263,0,1.969,0.471,1.969,1.445c0,1.016-0.602,1.592-1.969,1.592h-1.405
		V17.802z M22.563,20.498h0.905c0.373,0,1.378-0.076,1.378-1.195c0-0.724-0.362-1.162-1.365-1.162h-0.918V20.498z"/>
	<polygon style="fill:#58595B;" points="26.343,17.802 29.172,17.802 29.172,18.141 26.889,18.141 26.889,19.107 29.017,19.107 
		29.017,19.447 26.889,19.447 26.889,20.498 29.188,20.498 29.188,20.839 26.343,20.839 	"/>
	<path style="fill:#58595B;" d="M30.135,17.802h1.929c0.773,0,1.245,0.307,1.245,0.794c0,0.372-0.213,0.668-0.712,0.771v0.008
		c0.477,0.069,0.568,0.331,0.614,0.626c0.028,0.293,0.011,0.634,0.241,0.838h-0.609c-0.154-0.124-0.068-0.451-0.147-0.75
		c-0.064-0.293-0.156-0.549-0.685-0.549h-1.33v1.299h-0.546V17.802z M31.816,19.201c0.505,0,0.946-0.098,0.946-0.54
		c0-0.303-0.218-0.521-0.729-0.521h-1.354v1.061H31.816z"/>
	<polygon style="fill:#58595B;" points="34.353,17.802 37.18,17.802 37.18,18.141 34.896,18.141 34.896,19.107 37.025,19.107 
		37.025,19.447 34.896,19.447 34.896,20.498 37.197,20.498 37.197,20.839 34.353,20.839 	"/>
	<polygon style="fill:#58595B;" points="38.138,17.802 38.718,17.802 40.875,20.263 40.886,20.263 40.886,17.802 41.403,17.802 
		41.403,20.839 40.806,20.839 38.666,18.401 38.655,18.401 38.655,20.839 38.138,20.839 	"/>
	<path style="fill:#58595B;" d="M42.573,17.802h1.405c1.263,0,1.968,0.471,1.968,1.445c0,1.016-0.604,1.592-1.968,1.592h-1.405
		V17.802z M43.118,20.498h0.906c0.373,0,1.377-0.076,1.377-1.195c0-0.724-0.361-1.162-1.365-1.162h-0.918V20.498z"/>
	<polygon style="fill:#58595B;" points="46.898,17.802 49.727,17.802 49.727,18.141 47.443,18.141 47.443,19.107 49.571,19.107 
		49.571,19.447 47.443,19.447 47.443,20.498 49.744,20.498 49.744,20.839 46.898,20.839 	"/>
	<path style="fill:#58595B;" d="M53.162,18.718c-0.063-0.418-0.448-0.591-1.016-0.591c-0.464,0-0.918,0.116-0.918,0.495
		c0,0.714,2.622,0.21,2.622,1.351c0,0.617-0.855,0.866-1.601,0.866c-0.919,0-1.691-0.323-1.691-1.023h0.516
		c0,0.486,0.573,0.698,1.193,0.698c0.492,0,1.037-0.109,1.037-0.528c0-0.796-2.621-0.272-2.621-1.337
		c0-0.582,0.733-0.847,1.485-0.847c0.838,0,1.48,0.28,1.509,0.916H53.162z"/>
</g>
</svg>
