<?xml version="1.0" encoding="UTF-8" standalone="no"?>
<svg xmlns="http://www.w3.org/2000/svg" height="1004" width="768" version="1.1" xmlns:xlink="http://www.w3.org/1999/xlink">
<image width="768" xlink:href="/static/qrstand/Standerstatus-DTU.png" height="1004" y="0" x="0"/>
<g>
<g id="pin" transform="matrix(1.4,0,0,1.4,1852.1525,-174.1776)">
<path d="m-246,194c0,10.7-8.55,19.3-19.1,19.3s-19.1-8.63-19.1-19.3h19.1z" transform="matrix(0.65420555,0,0,0.64814805,-65.741523,72.250152)"/>
<path d="m-246,194c0,10.7-8.55,19.3-19.1,19.3s-19.1-8.63-19.1-19.3h19.1z" transform="matrix(-0.65420555,0,0,-0.64814805,-412.70409,324.19457)"/>
</g>
<g transform="matrix(1.2507602,0,0,1.2507602,-286.80725,-151.19701)">
<path d="m702,319c-9.46,3.07-14.7,13-11.7,22.2l0.212,0.654s2.29,9.08,12.6,12c10.4,2.99,16.2,18.3,16.2,18.3s-4.29-15.8,2.36-24.3c6.59-8.45,3.11-17.1,3.11-17.1l-0.212-0.654c-2.99-9.2-13.1-14.2-22.5-11.1z" fill="#80e5ff"/>
<use xlink:href="#pin" transform="matrix(0.94285714,0,0,0.94285714,-722.51381,238.60556)" height="1004" width="768" y="0" x="0"/>
<text y="333.88095" x="708.01556"><tspan style="text-anchor:middle;text-align:center;" y="333.88095" x="708.01556">26</tspan></text>
<text y="349.11755" x="708.01556"><tspan style="text-anchor:middle;text-align:center;" y="349.11755" x="708.01556">0</tspan></text>
</g>
<g transform="matrix(1.2507602,0,0,1.2507602,-509.95013,34.864697)">
<path d="m716,320c-8.78-4.66-19.6-1.53-24.1,7.01l-0.322,0.607s-4.94,7.96,0.0909,17.4c5.07,9.54-1.89,24.4-1.89,24.4s8.38-14.1,19.1-15.2c10.7-1.13,14.5-9.68,14.5-9.68l0.322-0.607c4.54-8.54,1.09-19.2-7.69-23.9z" fill="#80e5ff"/>
<use xlink:href="#pin" transform="matrix(0.94285714,0,0,0.94285714,-722.51381,238.60556)" height="1004" width="768" y="0" x="0"/>
<text y="333.88095" x="708.01556"><tspan style="text-anchor:middle;text-align:center;" y="333.88095" x="708.01556">12</tspan></text>
<text y="349.11755" x="708.01556"><tspan style="text-anchor:middle;text-align:center;" y="349.11755" x="708.01556">0</tspan></text>
</g>
<g transform="matrix(1.2507602,0,0,1.2507602,-631.51994,-40.332001)">
<path d="m716,352c8.83-4.57,12.4-15.2,7.93-23.8l-0.316-0.61s-3.74-8.59-14.4-9.83c-10.7-1.25-19-15.4-19-15.4s6.82,14.9,1.65,24.4c-5.13,9.41-0.266,17.4-0.266,17.4l0.316,0.61c4.45,8.59,15.2,11.8,24,7.26z" fill="#80e5ff"/>
<use xlink:href="#pin" transform="matrix(0.94285714,0,0,0.94285714,-722.51381,238.60556)" height="1004" width="768" y="0" x="0"/>
<text y="333.88095" x="708.01556"><tspan style="text-anchor:middle;text-align:center;" y="333.88095" x="708.01556">7</tspan></text>
<text y="349.11755" x="708.01556"><tspan style="text-anchor:middle;text-align:center;" y="349.11755" x="708.01556">0</tspan></text>
</g>
<g transform="matrix(1.2507602,0,0,1.2507602,-587.37422,46.288056)">
<path d="m697,322c-7.78,6.19-9.22,17.3-3.2,24.9l0.428,0.538s5.32,7.71,16,6.88c10.8-0.838,21.6,11.5,21.6,11.5s-9.55-13.3-6.31-23.6c3.22-10.2-3.09-17.1-3.09-17.1l-0.428-0.538c-6.02-7.57-17.2-8.68-25-2.5z" fill="#80e5ff"/>
<use xlink:href="#pin" transform="matrix(0.94285714,0,0,0.94285714,-722.51381,238.60556)" height="1004" width="768" y="0" x="0"/>
<text y="333.88095" x="708.01556"><tspan style="text-anchor:middle;text-align:center;" y="333.88095" x="708.01556">13</tspan></text>
<text y="349.11755" x="708.01556"><tspan style="text-anchor:middle;text-align:center;" y="349.11755" x="708.01556">0</tspan></text>
</g>
<g transform="matrix(1.2507602,0,0,1.2507602,-479.97748,242.12311)">
<path d="m726,339c1.76-9.78-4.52-19.1-14-20.8l-0.677-0.122s-9.09-2.27-16.6,5.41c-7.53,7.74-23.8,5.63-23.8,5.63s16,3.68,20.3,13.6c4.33,9.8,13.6,10.8,13.6,10.8l0.677,0.122c9.52,1.71,18.6-4.84,20.4-14.6z" fill="#80e5ff"/>
<use xlink:href="#pin" transform="matrix(0.94285714,0,0,0.94285714,-722.51381,238.60556)" height="1004" width="768" y="0" x="0"/>
<text y="333.88095" x="708.01556"><tspan style="text-anchor:middle;text-align:center;" y="333.88095" x="708.01556">17</tspan></text>
<text y="349.11755" x="708.01556"><tspan style="text-anchor:middle;text-align:center;" y="349.11755" x="708.01556">0</tspan></text>
</g>
<g transform="matrix(1.2507602,0,0,1.2507602,-603.80189,110.43881)">
<path d="m692,344c4.38,8.92,15,12.7,23.6,8.45l0.617-0.303s8.67-3.55,10.1-14.2c1.48-10.7,15.8-18.6,15.8-18.6s-15,6.49-24.4,1.12c-9.3-5.33-17.4-0.646-17.4-0.646l-0.617,0.303c-8.68,4.26-12.2,14.9-7.78,23.9z" fill="#80e5ff"/>
<use xlink:href="#pin" transform="matrix(0.94285714,0,0,0.94285714,-722.51381,238.60556)" height="1004" width="768" y="0" x="0"/>
<text y="333.88095" x="708.01556"><tspan style="text-anchor:middle;text-align:center;" y="333.88095" x="708.01556">14</tspan></text>
<text y="349.11755" x="708.01556"><tspan style="text-anchor:middle;text-align:center;" y="349.11755" x="708.01556">0</tspan></text>
</g>
<g transform="matrix(1.2507602,0,0,1.2507602,-459.70749,51.018503)">
<path d="m724,327c-4.97-8.61-15.8-11.7-24.2-6.85l-0.596,0.343s-8.41,4.12-9.17,14.8c-0.766,10.8-14.5,19.6-14.5,19.6s14.6-7.48,24.3-2.74c9.63,4.7,17.4-0.517,17.4-0.517l0.596-0.343c8.38-4.83,11.1-15.7,6.17-24.3z" fill="#80e5ff"/>
<use xlink:href="#pin" transform="matrix(0.94285714,0,0,0.94285714,-722.51381,238.60556)" height="1004" width="768" y="0" x="0"/>
<text y="333.88095" x="708.01556"><tspan style="text-anchor:middle;text-align:center;" y="333.88095" x="708.01556">11</tspan></text>
<text y="349.11755" x="708.01556"><tspan style="text-anchor:middle;text-align:center;" y="349.11755" x="708.01556">0</tspan></text>
</g>
<g transform="matrix(1.2507602,0,0,1.2507602,-432.14683,99.87206)">
<path d="m724,344c4.54-8.84,1.26-19.6-7.34-24l-0.612-0.314s-8.02-4.83-17.4,0.326c-9.47,5.2-24.4-1.56-24.4-1.56s14.2,8.18,15.5,18.9c1.28,10.6,9.88,14.4,9.88,14.4l0.612,0.314c8.6,4.42,19.2,0.829,23.8-8.01z" fill="#80e5ff"/>
<use xlink:href="#pin" transform="matrix(0.94285714,0,0,0.94285714,-722.51381,238.60556)" height="1004" width="768" y="0" x="0"/>
<text y="333.88095" x="708.01556"><tspan style="text-anchor:middle;text-align:center;" y="333.88095" x="708.01556">10</tspan></text>
<text y="349.11755" x="708.01556"><tspan style="text-anchor:middle;text-align:center;" y="349.11755" x="708.01556">0</tspan></text>
</g>
<g transform="matrix(1.2507602,0,0,1.2507602,-627.37996,222.2213)">
<path d="m694,324c-6.47,7.55-5.77,18.8,1.57,25.1l0.522,0.447s6.68,6.56,17,3.72c10.4-2.86,23.4,7.17,23.4,7.17s-11.9-11.2-10.7-22c1.22-10.6-6.28-16.2-6.28-16.2l-0.522-0.447c-7.34-6.29-18.5-5.27-25,2.28z" fill="#80e5ff"/>
<use xlink:href="#pin" transform="matrix(0.94285714,0,0,0.94285714,-722.51381,238.60556)" height="1004" width="768" y="0" x="0"/>
<text y="333.88095" x="708.01556"><tspan style="text-anchor:middle;text-align:center;" y="333.88095" x="708.01556">18</tspan></text>
<text y="349.11755" x="708.01556"><tspan style="text-anchor:middle;text-align:center;" y="349.11755" x="708.01556">0</tspan></text>
</g>
<g transform="matrix(1.2507602,0,0,1.2507602,-609.43578,359.12905)">
<path d="m690,339c1.43,9.84,10.3,16.7,19.9,15.3l0.68-0.0989s9.34-0.72,14-10.4c4.7-9.73,20.8-12.9,20.8-12.9s-16.3,1.56-23.6-6.43c-7.21-7.93-16.4-5.96-16.4-5.96l-0.68,0.0989c-9.57,1.39-16.2,10.5-14.7,20.3z" fill="#80e5ff"/>
<use xlink:href="#pin" transform="matrix(0.94285714,0,0,0.94285714,-722.51381,238.60556)" height="1004" width="768" y="0" x="0"/>
<text y="333.88095" x="708.01556"><tspan style="text-anchor:middle;text-align:center;" y="333.88095" x="708.01556">20</tspan></text>
<text y="349.11755" x="708.01556"><tspan style="text-anchor:middle;text-align:center;" y="349.11755" x="708.01556">0</tspan></text>
</g>
<g transform="matrix(1.2507602,0,0,1.2507602,-520.64,312.56964)">
<path d="m721,324c-6.91-7.14-18.1-7.49-25.1-0.759l-0.494,0.478s-7.15,6.05-5.29,16.6c1.88,10.6-9.31,22.6-9.31,22.6s12.3-10.8,22.9-8.58c10.5,2.21,16.8-4.75,16.8-4.75l0.494-0.478c6.95-6.73,6.97-18,0.0525-25.1z" fill="#80e5ff"/>
<use xlink:href="#pin" transform="matrix(0.94285714,0,0,0.94285714,-722.51381,238.60556)" height="1004" width="768" y="0" x="0"/>
<text y="333.88095" x="708.01556"><tspan style="text-anchor:middle;text-align:center;" y="333.88095" x="708.01556">19</tspan></text>
<text y="349.11755" x="708.01556"><tspan style="text-anchor:middle;text-align:center;" y="349.11755" x="708.01556">0</tspan></text>
</g>
<g transform="matrix(1.2507602,0,0,1.2507602,-582.67595,160.8259)">
<path d="m695,324c-6.91,7.15-6.87,18.4,0.0818,25.1l0.494,0.478s6.28,6.95,16.8,4.73c10.6-2.24,22.9,8.55,22.9,8.55s-11.2-11.9-9.34-22.6c1.86-10.6-5.3-16.6-5.3-16.6l-0.494-0.478c-6.96-6.72-18.2-6.36-25.1,0.789z" fill="#80e5ff"/>
<use xlink:href="#pin" transform="matrix(0.94285714,0,0,0.94285714,-722.51381,238.60556)" height="1004" width="768" y="0" x="0"/>
<text y="333.88095" x="708.01556"><tspan style="text-anchor:middle;text-align:center;" y="333.88095" x="708.01556">15</tspan></text>
<text y="349.11755" x="708.01556"><tspan style="text-anchor:middle;text-align:center;" y="349.11755" x="708.01556">0</tspan></text>
</g>
<g transform="matrix(1.2507602,0,0,1.2507602,-286.9641,366.21825)">
<path d="m724,345c4.75-8.73,1.72-19.6-6.77-24.2l-0.604-0.328s-7.91-5.02-17.4-0.0827c-9.59,4.98-24.3-2.14-24.3-2.14s14,8.52,15,19.3c1.03,10.7,9.54,14.6,9.54,14.6l0.604,0.328c8.5,4.62,19.2,1.28,24-7.45z" fill="#80e5ff"/>
<use xlink:href="#pin" transform="matrix(0.94285714,0,0,0.94285714,-722.51381,238.60556)" height="1004" width="768" y="0" x="0"/>
<text y="333.88095" x="708.01556"><tspan style="text-anchor:middle;text-align:center;" y="333.88095" x="708.01556">22</tspan></text>
<text y="349.11755" x="708.01556"><tspan style="text-anchor:middle;text-align:center;" y="349.11755" x="708.01556">0</tspan></text>
</g>
<g transform="matrix(1.2507602,0,0,1.2507602,-287.26004,526.24769)">
<path d="m721,323c-7.09-6.97-18.3-7.04-25.1-0.144l-0.482,0.49s-7,6.22-4.88,16.7c2.14,10.6-8.76,22.8-8.76,22.8s12-11.1,22.7-9.14c10.5,1.95,16.6-5.15,16.6-5.15l0.482-0.49c6.78-6.9,6.52-18.1-0.563-25.1z" fill="#80e5ff"/>
<use xlink:href="#pin" transform="matrix(0.94285714,0,0,0.94285714,-722.51381,238.60556)" height="1004" width="768" y="0" x="0"/>
<text y="333.88095" x="708.01556"><tspan style="text-anchor:middle;text-align:center;" y="333.88095" x="708.01556">24</tspan></text>
<text y="349.11755" x="708.01556"><tspan style="text-anchor:middle;text-align:center;" y="349.11755" x="708.01556">0</tspan></text>
</g>
<g transform="matrix(1.2507602,0,0,1.2507602,-300.11307,-347.26197)">
<path d="m725,329c-3.66-9.24-13.9-13.9-22.9-10.3l-0.639,0.253s-8.92,2.85-11.2,13.3c-2.33,10.5-17.2,17.3-17.2,17.3s15.5-5.27,24.4,0.828c8.84,6.05,17.3,2.03,17.3,2.03l0.639-0.253c8.99-3.56,13.3-13.9,9.65-23.2z" fill="#80e5ff"/>
<use xlink:href="#pin" transform="matrix(0.94285714,0,0,0.94285714,-722.51381,238.60556)" height="1004" width="768" y="0" x="0"/>
<text y="333.88095" x="708.01556"><tspan style="text-anchor:middle;text-align:center;" y="333.88095" x="708.01556">5</tspan></text>
<text y="349.11755" x="708.01556"><tspan style="text-anchor:middle;text-align:center;" y="349.11755" x="708.01556">0</tspan></text>
</g>
<g transform="matrix(1.2507602,0,0,1.2507602,-382.51436,376.24338)">
<path d="m693,346c5.68,8.16,16.7,10.3,24.6,4.78l0.564-0.393s8.03-4.82,7.88-15.5c-0.151-10.8,12.8-20.8,12.8-20.8s-13.9,8.69-24,4.79c-10-3.86-17.3,1.99-17.3,1.99l-0.564,0.393c-7.94,5.52-9.76,16.6-4.08,24.8z" fill="#80e5ff"/>
<use xlink:href="#pin" transform="matrix(0.94285714,0,0,0.94285714,-722.51381,238.60556)" height="1004" width="768" y="0" x="0"/>
<text y="333.88095" x="708.01556"><tspan style="text-anchor:middle;text-align:center;" y="333.88095" x="708.01556">23</tspan></text>
<text y="349.11755" x="708.01556"><tspan style="text-anchor:middle;text-align:center;" y="349.11755" x="708.01556">0</tspan></text>
</g>
<g transform="matrix(1.2507602,0,0,1.2507602,-235.54558,-386.18607)">
<path d="m726,334c-1.04-9.89-9.66-17.1-19.3-16.1l-0.684,0.0717s-9.36,0.346-14.4,9.8c-5.08,9.53-21.3,12-21.3,12s16.3-0.911,23.3,7.36c6.89,8.21,16.1,6.61,16.1,6.61l0.684-0.0717c9.62-1.01,16.6-9.84,15.5-19.7z" fill="#80e5ff"/>
<use xlink:href="#pin" transform="matrix(0.94285714,0,0,0.94285714,-722.51381,238.60556)" height="1004" width="768" y="0" x="0"/>
<text y="333.88095" x="708.01556"><tspan style="text-anchor:middle;text-align:center;" y="333.88095" x="708.01556">6</tspan></text>
<text y="349.11755" x="708.01556"><tspan style="text-anchor:middle;text-align:center;" y="349.11755" x="708.01556">0</tspan></text>
</g>
<g transform="matrix(1.2507602,0,0,1.2507602,-406.74659,-309.41779)">
<path d="m692,345c5.02,8.58,15.8,11.6,24.2,6.7l0.593-0.347s8.38-4.18,9.08-14.9c0.697-10.8,14.4-19.7,14.4-19.7s-14.5,7.57-24.3,2.9c-9.66-4.64-17.4,0.63-17.4,0.63l-0.593,0.347c-8.35,4.88-11,15.8-6.01,24.4z" fill="#80e5ff"/>
<use xlink:href="#pin" transform="matrix(0.94285714,0,0,0.94285714,-722.51381,238.60556)" height="1004" width="768" y="0" x="0"/>
<text y="333.88095" x="708.01556"><tspan style="text-anchor:middle;text-align:center;" y="333.88095" x="708.01556">4</tspan></text>
<text y="349.11755" x="708.01556"><tspan style="text-anchor:middle;text-align:center;" y="349.11755" x="708.01556">0</tspan></text>
</g>
<g transform="matrix(1.2507602,0,0,1.2507602,-257.36665,-246.03227)">
<path d="m726,339c1.4-9.84-5.21-18.9-14.8-20.3l-0.681-0.097s-9.16-1.94-16.4,6c-7.25,8.01-23.6,6.49-23.6,6.49s16.1,3.1,20.8,12.8c4.69,9.64,14,10.3,14,10.3l0.681,0.097c9.57,1.36,18.5-5.51,19.9-15.4z" fill="#80e5ff"/>
<use xlink:href="#pin" transform="matrix(0.94285714,0,0,0.94285714,-722.51381,238.60556)" height="1004" width="768" y="0" x="0"/>
<text y="333.88095" x="708.01556"><tspan style="text-anchor:middle;text-align:center;" y="333.88095" x="708.01556">3</tspan></text>
<text y="349.11755" x="708.01556"><tspan style="text-anchor:middle;text-align:center;" y="349.11755" x="708.01556">0</tspan></text>
</g>
<g transform="matrix(1.2507602,0,0,1.2507602,-692.52551,-116.94165)">
<path d="m693,326c-5.66,8.17-3.81,19.3,4.14,24.8l0.565,0.391s7.32,5.84,17.3,1.96c10.1-3.92,24,4.74,24,4.74s-13-9.97-12.9-20.8c0.126-10.7-7.92-15.5-7.92-15.5l-0.565-0.391c-7.95-5.51-19-3.34-24.6,4.83z" fill="#80e5ff"/>
<use xlink:href="#pin" transform="matrix(0.94285714,0,0,0.94285714,-722.51381,238.60556)" height="1004" width="768" y="0" x="0"/>
<text y="333.88095" x="708.01556"><tspan style="text-anchor:middle;text-align:center;" y="333.88095" x="708.01556">8</tspan></text>
<text y="349.11755" x="708.01556"><tspan style="text-anchor:middle;text-align:center;" y="349.11755" x="708.01556">0</tspan></text>
</g>
<g transform="matrix(1.2507602,0,0,1.2507602,-546.30695,-140.19777)">
<path d="m726,332c-2.08-9.72-11.4-16-20.9-13.9l-0.672,0.144s-9.27,1.34-13.3,11.3c-4.04,10-19.9,14.2-19.9,14.2s16.2-2.64,23.9,4.85c7.72,7.43,16.7,4.86,16.7,4.86l0.672-0.144c9.46-2.02,15.4-11.5,13.3-21.3z" fill="#80e5ff"/>
<use xlink:href="#pin" transform="matrix(0.94285714,0,0,0.94285714,-722.51381,238.60556)" height="1004" width="768" y="0" x="0"/>
<text y="333.88095" x="708.01556"><tspan style="text-anchor:middle;text-align:center;" y="333.88095" x="708.01556">9</tspan></text>
<text y="349.11755" x="708.01556"><tspan style="text-anchor:middle;text-align:center;" y="349.11755" x="708.01556">0</tspan></text>
</g>
<g transform="matrix(1.2507602,0,0,1.2507602,-661.24961,-386.21843)">
<path d="m706,318c-9.84,1.39-16.7,10.3-15.4,19.9l0.0964,0.681s0.686,9.34,10.3,14c9.71,4.73,12.8,20.8,12.8,20.8s-1.5-16.3,6.51-23.5c7.95-7.19,6.02-16.3,6.02-16.3l-0.0965-0.681c-1.36-9.58-10.4-16.2-20.3-14.8z" fill="#80e5ff"/>
<use xlink:href="#pin" transform="matrix(0.94285714,0,0,0.94285714,-722.51381,238.60556)" height="1004" width="768" y="0" x="0"/>
<text y="333.88095" x="708.01556"><tspan style="text-anchor:middle;text-align:center;" y="333.88095" x="708.01556">2</tspan></text>
<text y="349.11755" x="708.01556"><tspan style="text-anchor:middle;text-align:center;" y="349.11755" x="708.01556">0</tspan></text>
</g>
<g transform="matrix(1.2507602,0,0,1.2507602,-559.59319,265.36709)">
<path d="m706,354c9.87,1.18,18.8-5.64,19.9-15.2l0.0815-0.683s1.73-9.2-6.37-16.2c-8.17-7.06-7.03-23.4-7.03-23.4s-2.73,16.1-12.3,21.1c-9.53,4.9-10,14.3-10,14.3l-0.0815,0.683c-1.15,9.6,5.93,18.3,15.8,19.5z" fill="#80e5ff"/>
<use xlink:href="#pin" transform="matrix(0.94285714,0,0,0.94285714,-722.51381,238.60556)" height="1004" width="768" y="0" x="0"/>
<text y="333.88095" x="708.01556"><tspan style="text-anchor:middle;text-align:center;" y="333.88095" x="708.01556">16</tspan></text>
<text y="349.11755" x="708.01556"><tspan style="text-anchor:middle;text-align:center;" y="349.11755" x="708.01556">0</tspan></text>
</g>
<g transform="matrix(1.2507602,0,0,1.2507602,-316.634,289.74898)">
<path d="m726,334c-1.35-9.85-10.2-16.8-19.8-15.5l-0.681,0.0932s-9.34,0.642-14.1,10.3c-4.78,9.69-20.9,12.7-20.9,12.7s16.3-1.43,23.5,6.62c7.15,7.99,16.3,6.09,16.3,6.09l0.681-0.0932c9.58-1.31,16.2-10.4,14.9-20.2z" fill="#80e5ff"/>
<use xlink:href="#pin" transform="matrix(0.94285714,0,0,0.94285714,-722.51381,238.60556)" height="1004" width="768" y="0" x="0"/>
<text y="333.88095" x="708.01556"><tspan style="text-anchor:middle;text-align:center;" y="333.88095" x="708.01556">21</tspan></text>
<text y="349.11755" x="708.01556"><tspan style="text-anchor:middle;text-align:center;" y="349.11755" x="708.01556">0</tspan></text>
</g>
<g transform="matrix(1.2507602,0,0,1.2507602,-360.1088,-153.79964)">
<path d="m699,320c-8.66,4.88-11.8,15.7-7.08,24.1l0.337,0.599s4.04,8.45,14.7,9.31c10.8,0.869,19.5,14.7,19.5,14.7s-7.34-14.6-2.51-24.3c4.79-9.59-0.352-17.4-0.352-17.4l-0.337-0.599c-4.75-8.42-15.6-11.3-24.3-6.4z" fill="#80e5ff"/>
<use xlink:href="#pin" transform="matrix(0.94285714,0,0,0.94285714,-722.51381,238.60556)" height="1004" width="768" y="0" x="0"/>
<text y="333.88095" x="708.01556"><tspan style="text-anchor:middle;text-align:center;" y="333.88095" x="708.01556">25</tspan></text>
<text y="349.11755" x="708.01556"><tspan style="text-anchor:middle;text-align:center;" y="349.11755" x="708.01556">0</tspan></text>
</g>
<g transform="matrix(1.2507602,0,0,1.2507602,-723.82856,-378.0867)">
<path d="m706,318c-9.84,1.39-16.7,10.3-15.4,19.9l0.0964,0.681s0.686,9.34,10.3,14c9.71,4.73,12.8,20.8,12.8,20.8s-1.5-16.3,6.51-23.5c7.95-7.19,6.02-16.3,6.02-16.3l-0.0965-0.681c-1.36-9.58-10.4-16.2-20.3-14.8z" fill="#80e5ff"/>
<use xlink:href="#pin" transform="matrix(0.94285714,0,0,0.94285714,-722.51381,238.60556)" height="1004" width="768" y="0" x="0"/>
<text y="333.88095" x="708.01556"><tspan style="text-anchor:middle;text-align:center;" y="333.88095" x="708.01556">1</tspan></text>
<text y="349.11755" x="708.01556"><tspan style="text-anchor:middle;text-align:center;" y="349.11755" x="708.01556">0</tspan></text>
</g>
</g>
</svg>
