<?xml version="1.0" encoding="UTF-8" standalone="no"?>
<!-- Created with Inkscape (http://www.inkscape.org/) -->

<svg
   xmlns:dc="http://purl.org/dc/elements/1.1/"
   xmlns:cc="http://creativecommons.org/ns#"
   xmlns:rdf="http://www.w3.org/1999/02/22-rdf-syntax-ns#"
   xmlns:svg="http://www.w3.org/2000/svg"
   xmlns="http://www.w3.org/2000/svg"
   xmlns:sodipodi="http://sodipodi.sourceforge.net/DTD/sodipodi-0.dtd"
   xmlns:inkscape="http://www.inkscape.org/namespaces/inkscape"
   id="svg3336"
   version="1.1"
   inkscape:version="0.91 r13725"
   xml:space="preserve"
   width="1280"
   height="960"
   viewBox="0 0 1280 960"
   sodipodi:docname="bg.svg"><metadata
     id="metadata3342"><rdf:RDF><cc:Work
         rdf:about=""><dc:format>image/svg+xml</dc:format><dc:type
           rdf:resource="http://purl.org/dc/dcmitype/StillImage" /></cc:Work></rdf:RDF></metadata><defs
     id="defs3340"><radialGradient
       fx="0"
       fy="0"
       cx="0"
       cy="0"
       r="1"
       gradientUnits="userSpaceOnUse"
       gradientTransform="matrix(1657.2185,0,0,-1657.2185,123.24471,758.77626)"
       spreadMethod="pad"
       id="radialGradient3358"><stop
         style="stop-opacity:1;stop-color:#d4effc"
         offset="0"
         id="stop3360" /><stop
         style="stop-opacity:1;stop-color:#d4effc"
         offset="0.0219727"
         id="stop3362" /><stop
         style="stop-opacity:1;stop-color:#00aeef"
         offset="1"
         id="stop3364" /></radialGradient><clipPath
       clipPathUnits="userSpaceOnUse"
       id="clipPath3380"><path
         d="m 652.289,18.33 353.281,0 0,86.362 -353.281,0 0,-86.362 z"
         id="path3382"
         inkscape:connector-curvature="0" /></clipPath></defs><sodipodi:namedview
     pagecolor="#ffffff"
     bordercolor="#666666"
     borderopacity="1"
     objecttolerance="10"
     gridtolerance="10"
     guidetolerance="10"
     inkscape:pageopacity="0"
     inkscape:pageshadow="2"
     inkscape:window-width="1680"
     inkscape:window-height="988"
     id="namedview3338"
     showgrid="false"
     inkscape:zoom="0.853125"
     inkscape:cx="640"
     inkscape:cy="480"
     inkscape:window-x="-8"
     inkscape:window-y="-8"
     inkscape:window-maximized="1"
     inkscape:current-layer="g3344" /><g
     id="g3344"
     inkscape:groupmode="layer"
     inkscape:label="bg"
     transform="matrix(1.25,0,0,-1.25,0,960)"><g
       id="g3346"><g
         id="g3348"><g
           id="g3354"><g
             id="g3356"><path
               d="m 0,0 1024,0 0,768 L 0,768 0,0 Z"
               style="fill:url(#radialGradient3358);stroke:none"
               id="path3366"
               inkscape:connector-curvature="0" /></g></g></g></g><path
       d="m 0,0 1024,0 0,122.88 -1024,0 L 0,0 Z"
       style="fill:#58595b;fill-opacity:1;fill-rule:nonzero;stroke:none"
       id="path3368"
       inkscape:connector-curvature="0" /><path
       d="m 989.138,87.099 16.407,0 0,16.407 -16.407,0 0,-16.407 z"
       style="fill:#1689ca;fill-opacity:1;fill-rule:nonzero;stroke:none"
       id="path3370"
       inkscape:connector-curvature="0" /><path
       d="m 989.164,64.069 16.407,0 0,16.409 -16.407,0 0,-16.409 z"
       style="fill:#0d9c4a;fill-opacity:1;fill-rule:nonzero;stroke:none"
       id="path3372"
       inkscape:connector-curvature="0" /><path
       d="m 989.154,41.04 16.407,0 0,16.407 -16.407,0 0,-16.407 z"
       style="fill:#f68b1f;fill-opacity:1;fill-rule:nonzero;stroke:none"
       id="path3374"
       inkscape:connector-curvature="0" /><g
       id="g3376"><g
         id="g3378"
         clip-path="url(#clipPath3380)"><g
           id="g3384"
           transform="translate(671.5593,47.6264)"><path
             d="m 0,0 0,3.06 c -0.103,4.903 -2.013,6.857 -6.99,6.857 -4.56,0 -6.717,-2.401 -6.717,-6.857 L -13.707,0 0,0 Z m -19.272,-6.468 0,10.683 c 0,7.613 4.629,12.178 12.316,12.178 8.142,0 12.529,-4.633 12.529,-12.178 l 0,-10.683 -24.845,0 z"
             style="fill:#e6e7e8;fill-opacity:1;fill-rule:nonzero;stroke:none"
             id="path3386"
             inkscape:connector-curvature="0" /></g><g
           id="g3388"
           transform="translate(668.5519,69.1857)"><path
             d="m 0,0 c 2.801,0.141 3.772,2.124 3.772,4.904 0,1.945 -0.667,3.966 -2.437,3.966 -2.136,0 -2.503,-3.752 -3.472,-7.329 -0.969,-3.519 -2.636,-7.778 -7.041,-7.778 -5.214,0 -7.086,5.963 -7.086,10.638 0,4.902 2.339,10.14 7.683,10.14 l 0,-6.478 c -2.141,0.11 -2.872,-2.043 -2.872,-3.995 0,-1.395 0.465,-3.129 2.032,-3.129 1.875,0 2.178,3.587 3.144,7.205 0.97,3.576 2.566,6.408 6.874,6.408 6.05,0 7.983,-4.99 7.983,-10.45 0,-5.68 -2.471,-10.615 -8.576,-10.615 L 0,0 Z"
             style="fill:#e6e7e8;fill-opacity:1;fill-rule:nonzero;stroke:none"
             id="path3390"
             inkscape:connector-curvature="0" /></g><g
           id="g3392"
           transform="translate(652.2882,83.4132)"><path
             d="m 0,0 0,20.165 5.203,0 0,-13.701 4.768,0 0,12.183 4.774,0 0,-12.183 4.859,0 0,13.701 5.24,0 L 24.844,0 0,0 Z"
             style="fill:#e6e7e8;fill-opacity:1;fill-rule:nonzero;stroke:none"
             id="path3394"
             inkscape:connector-curvature="0" /></g><g
           id="g3396"
           transform="translate(683.6908,103.5247)"><path
             d="m 0,0 23.912,0 10.734,-38.268 0.176,0 L 45.555,0 l 23.913,0 0,-62.312 -15.273,0 0,38.224 -0.175,0 -13.09,-38.224 -12.392,0 -13.09,38.224 -0.176,0 0,-38.224 L 0,-62.312 0,0 Z"
             style="fill:#bcbec0;fill-opacity:1;fill-rule:nonzero;stroke:none"
             id="path3398"
             inkscape:connector-curvature="0" /></g><g
           id="g3400"
           transform="translate(759.7438,103.5298)"><path
             d="m 0,0 50.503,0 0,-13.002 -34.27,0 0,-11.086 30.544,0 0,-14.179 -30.544,0 0,-10.08 34.298,0 0,-13.964 L 0,-62.311 0,0 Z"
             style="fill:#bcbec0;fill-opacity:1;fill-rule:nonzero;stroke:none"
             id="path3402"
             inkscape:connector-curvature="0" /></g><g
           id="g3404"
           transform="translate(831.2392,61.998)"><path
             d="m 0,0 c 0.348,-7.331 4.799,-9.686 11.781,-9.686 4.887,0 9.948,1.745 9.948,6.37 0,5.586 -8.9,6.545 -17.89,9.077 -8.815,2.53 -18.239,6.456 -18.239,17.977 0,13.614 13.701,18.938 25.395,18.938 12.305,0 24.96,-6.109 24.96,-20.073 l -16.233,0 c 0.262,5.586 -5.149,7.505 -10.036,7.505 -3.491,0 -7.855,-1.221 -7.855,-5.323 0,-4.887 8.989,-5.673 18.067,-8.205 8.988,-2.53 18.064,-6.718 18.064,-17.976 0,-15.796 -13.439,-20.858 -27.142,-20.858 -14.224,0 -27.053,6.284 -27.053,22.254 L 0,0 Z"
             style="fill:#bcbec0;fill-opacity:1;fill-rule:nonzero;stroke:none"
             id="path3406"
             inkscape:connector-curvature="0" /></g><g
           id="g3408"
           transform="translate(888.2397,62.1186)"><path
             d="m 0,0 c 0.348,-7.331 4.801,-9.686 11.781,-9.686 4.887,0 9.949,1.745 9.949,6.37 0,5.586 -8.901,6.545 -17.891,9.077 -8.813,2.53 -18.239,6.456 -18.239,17.977 0,13.614 13.703,18.938 25.397,18.938 12.305,0 24.958,-6.109 24.958,-20.073 l -16.231,0 c 0.262,5.586 -5.149,7.505 -10.036,7.505 -3.491,0 -7.855,-1.221 -7.855,-5.323 0,-4.887 8.989,-5.673 18.065,-8.205 8.988,-2.53 18.065,-6.718 18.065,-17.976 0,-15.796 -13.44,-20.858 -27.141,-20.858 -14.224,0 -27.053,6.284 -27.053,22.254 L 0,0 Z"
             style="fill:#bcbec0;fill-opacity:1;fill-rule:nonzero;stroke:none"
             id="path3410"
             inkscape:connector-curvature="0" /></g><g
           id="g3412"
           transform="translate(930.8383,103.4846)"><path
             d="m 0,0 50.523,0 0,-13.002 -34.29,0 0,-11.086 30.544,0 0,-14.183 -30.544,0 0,-10.076 34.298,0 0,-13.964 L 0,-62.311 0,0 Z"
             style="fill:#bcbec0;fill-opacity:1;fill-rule:nonzero;stroke:none"
             id="path3414"
             inkscape:connector-curvature="0" /></g><g
           id="g3416"
           transform="translate(788.6011,20.1832)"><path
             d="m 0,0 3.558,-0.001 c 1.464,0 5.404,0.406 5.404,6.329 0,3.828 -1.419,6.149 -5.359,6.149 L 0,12.478 0,0 Z m -2.14,14.279 5.518,-10e-4 c 4.955,0 7.725,-2.502 7.725,-7.659 0,-5.382 -2.365,-8.421 -7.725,-8.421 l -5.518,0.001 0,16.08 z"
             style="fill:#e6e7e8;fill-opacity:1;fill-rule:nonzero;stroke:none"
             id="path3418"
             inkscape:connector-curvature="0" /></g><g
           id="g3420"
           transform="translate(807.6508,32.6575)"><path
             d="m 0,0 -5.359,0.001 0,1.801 12.858,-0.001 0,-1.801 -5.358,0 0,-14.279 -2.141,0 L 0,0 Z"
             style="fill:#e6e7e8;fill-opacity:1;fill-rule:nonzero;stroke:none"
             id="path3422"
             inkscape:connector-curvature="0" /></g><g
           id="g3424"
           transform="translate(831.454,24.1877)"><path
             d="m 0,0 c 0,-4.077 -2.297,-6.193 -6.328,-6.193 -4.143,10e-4 -6.598,1.915 -6.598,6.194 l 0,10.269 2.138,0 0,-10.269 c 0,-2.86 1.6,-4.392 4.46,-4.393 2.725,0 4.188,1.532 4.188,4.392 l 0,10.27 2.14,0 L 0,0 Z"
             style="fill:#e6e7e8;fill-opacity:1;fill-rule:nonzero;stroke:none"
             id="path3426"
             inkscape:connector-curvature="0" /></g><g
           id="g3428"
           transform="translate(844.5125,34.4549)"><path
             d="m 0,0 2.14,0 0,-14.279 8.512,-10e-4 0,-1.801 L 0,-16.08 0,0 Z"
             style="fill:#e6e7e8;fill-opacity:1;fill-rule:nonzero;stroke:none"
             id="path3430"
             inkscape:connector-curvature="0" /></g><g
           id="g3432"
           transform="translate(865.3643,24.9499)"><path
             d="m 0,0 0,-6.576 -2.14,0 0,6.576 -6.215,9.505 2.545,-0.001 4.819,-7.658 4.708,7.657 2.431,0 L 0,0 Z"
             style="fill:#e6e7e8;fill-opacity:1;fill-rule:nonzero;stroke:none"
             id="path3434"
             inkscape:connector-curvature="0" /></g><g
           id="g3436"
           transform="translate(874.9796,34.4521)"><path
             d="m 0,0 2.274,-0.001 8.468,-13.041 0.046,0 0,13.04 2.025,0 0,-16.08 -2.342,0 -8.4,12.905 -0.044,0 0,-12.904 L 0,-16.08 0,0 Z"
             style="fill:#e6e7e8;fill-opacity:1;fill-rule:nonzero;stroke:none"
             id="path3438"
             inkscape:connector-curvature="0" /></g><g
           id="g3440"
           transform="translate(904.9739,20.3734)"><path
             d="m 0,0 c -1.262,-1.667 -3.288,-2.387 -5.158,-2.387 -4.796,0 -7.656,3.897 -7.656,8.109 0,4.684 2.567,8.736 7.656,8.736 3.491,-10e-4 6.329,-1.576 6.914,-5.337 l -2.139,0 c -0.428,2.432 -2.365,3.535 -4.775,3.536 -3.896,0 -5.517,-3.4 -5.517,-6.824 0,-3.356 1.936,-6.418 5.517,-6.418 3.333,-0.001 5.27,2.296 5.158,5.246 l -5.135,0.001 0,1.802 7.049,-0.001 0,-8.468 -1.352,0 L 0,0 Z"
             style="fill:#e6e7e8;fill-opacity:1;fill-rule:nonzero;stroke:none"
             id="path3442"
             inkscape:connector-curvature="0" /></g><g
           id="g3444"
           transform="translate(913.8677,20.169)"><path
             d="m 0,0 5.359,-0.001 c 1.87,0 3.019,1.105 3.019,2.882 0,2.096 -1.689,2.681 -3.492,2.681 L 0,5.563 0,0 Z m 0,7.365 4.279,0 c 2.432,-0.001 3.423,0.855 3.423,2.566 0,2.252 -1.554,2.546 -3.423,2.547 L 0,12.478 0,7.365 Z m -2.14,6.914 5.833,0 C 5.089,14.278 7.004,14.278 7.95,13.692 9.008,13.061 9.841,11.935 9.841,10.336 9.841,8.625 8.962,7.341 7.455,6.732 l 0,-0.043 C 9.436,6.26 10.516,4.797 10.516,2.815 10.516,0.473 8.805,-1.802 5.63,-1.802 l -7.77,0.001 0,16.08 z"
             style="fill:#e6e7e8;fill-opacity:1;fill-rule:nonzero;stroke:none"
             id="path3446"
             inkscape:connector-curvature="0" /></g><g
           id="g3448"
           transform="translate(935.4854,24.9423)"><path
             d="m 0,0 0,-6.576 -2.14,0 0,6.576 -6.215,9.505 2.545,-0.001 4.819,-7.658 4.708,7.657 2.431,0 L 0,0 Z"
             style="fill:#e6e7e8;fill-opacity:1;fill-rule:nonzero;stroke:none"
             id="path3450"
             inkscape:connector-curvature="0" /></g><g
           id="g3452"
           transform="translate(952.3062,28.6784)"><path
             d="m 0,0 c -0.18,3.243 1.757,5.652 5.135,5.652 2.769,0 4.999,-1.623 4.999,-4.595 0,-2.816 -1.891,-4.211 -3.874,-5.472 C 4.279,-5.608 2.14,-6.667 1.779,-8.626 l 8.197,-0.001 0,-1.689 -10.427,0.002 c 0.294,3.76 2.23,5.178 4.482,6.53 2.702,1.689 4.076,2.635 4.076,4.864 0,1.734 -1.396,2.883 -3.085,2.883 -2.229,0 -3.176,-2.05 -3.108,-3.964 L 0,0 Z"
             style="fill:#e6e7e8;fill-opacity:1;fill-rule:nonzero;stroke:none"
             id="path3454"
             inkscape:connector-curvature="0" /></g><g
           id="g3456"
           transform="translate(971.7837,19.78)"><path
             d="M 0,0 C 3.265,0 3.287,4.053 3.287,6.441 3.287,8.805 3.265,12.86 0,12.86 -3.265,12.861 -3.288,8.806 -3.288,6.442 -3.288,4.054 -3.265,0.001 0,0 m 0,14.549 c 5,0 5.315,-4.617 5.315,-8.131 C 5.315,2.905 5,-1.689 0,-1.689 -5,-1.688 -5.315,2.906 -5.315,6.419 -5.315,9.933 -5,14.55 0,14.549"
             style="fill:#e6e7e8;fill-opacity:1;fill-rule:nonzero;stroke:none"
             id="path3458"
             inkscape:connector-curvature="0" /></g><g
           id="g3460"
           transform="translate(987.7493,18.3593)"><path
             d="m 0,0 -1.914,0.001 0,11.44 -4.144,0 0,1.531 c 2.184,0 4.165,0.564 4.594,2.997 L 0,15.968 0,0 Z"
             style="fill:#e6e7e8;fill-opacity:1;fill-rule:nonzero;stroke:none"
             id="path3462"
             inkscape:connector-curvature="0" /></g><g
           id="g3464"
           transform="translate(1004.5249,32.3655)"><path
             d="m 0,0 -6.441,0.001 -0.856,-4.595 0.045,-0.045 c 0.698,0.789 1.891,1.149 2.973,1.149 2.838,0 5.157,-1.802 5.157,-5.473 0,-2.703 -1.869,-5.315 -5.585,-5.315 -2.77,0 -5.022,1.69 -5.089,4.573 l 1.914,-10e-4 c 0.112,-1.644 1.441,-2.883 3.356,-2.883 1.823,0 3.378,1.262 3.378,3.784 0,2.095 -1.442,3.626 -3.604,3.626 -1.238,0 -2.229,-0.608 -2.973,-1.509 L -9.369,-6.597 -7.882,1.69 0,1.689 0,0 Z"
             style="fill:#e6e7e8;fill-opacity:1;fill-rule:nonzero;stroke:none"
             id="path3466"
             inkscape:connector-curvature="0" /></g></g></g></g></svg>