<?xml version="1.0" encoding="UTF-8" standalone="no"?>
<!-- Created with Inkscape (http://www.inkscape.org/) -->

<svg
   xmlns:dc="http://purl.org/dc/elements/1.1/"
   xmlns:cc="http://creativecommons.org/ns#"
   xmlns:rdf="http://www.w3.org/1999/02/22-rdf-syntax-ns#"
   xmlns:svg="http://www.w3.org/2000/svg"
   xmlns="http://www.w3.org/2000/svg"
   xmlns:sodipodi="http://sodipodi.sourceforge.net/DTD/sodipodi-0.dtd"
   xmlns:inkscape="http://www.inkscape.org/namespaces/inkscape"
   id="svg2985"
   version="1.1"
   inkscape:version="0.48.4 r9939"
   width="1280"
   height="960"
   xml:space="preserve"
   sodipodi:docname="bg.svg"
   inkscape:export-filename="hej2.png"
   inkscape:export-xdpi="90"
   inkscape:export-ydpi="90"><metadata
     id="metadata2991"><rdf:RDF><cc:Work
         rdf:about=""><dc:format>image/svg+xml</dc:format><dc:type
           rdf:resource="http://purl.org/dc/dcmitype/StillImage" /><dc:title></dc:title></cc:Work></rdf:RDF></metadata><defs
     id="defs2989"><radialGradient
       fx="0"
       fy="0"
       cx="0"
       cy="0"
       r="1"
       gradientUnits="userSpaceOnUse"
       gradientTransform="matrix(1657.2185,0,0,-1657.2185,123.24471,758.77626)"
       spreadMethod="pad"
       id="radialGradient3007"><stop
         style="stop-opacity:1;stop-color:#d9f3fd"
         offset="0"
         id="stop3009" /><stop
         style="stop-opacity:1;stop-color:#00adef"
         offset="1"
         id="stop3011" /></radialGradient><clipPath
       clipPathUnits="userSpaceOnUse"
       id="clipPath3027"><path
         d="m 652.289,18.33 353.281,0 0,86.362 -353.281,0 0,-86.362 z"
         id="path3029"
         inkscape:connector-curvature="0" /></clipPath></defs><sodipodi:namedview
     pagecolor="#ffffff"
     bordercolor="#666666"
     borderopacity="1"
     objecttolerance="10"
     gridtolerance="10"
     guidetolerance="10"
     inkscape:pageopacity="0"
     inkscape:pageshadow="2"
     inkscape:window-width="1680"
     inkscape:window-height="988"
     id="namedview2987"
     showgrid="false"
     units="pt"
     inkscape:zoom="0.4734375"
     inkscape:cx="925.28731"
     inkscape:cy="332.40108"
     inkscape:window-x="-8"
     inkscape:window-y="-8"
     inkscape:window-maximized="1"
     inkscape:current-layer="g2993" /><g
     id="g2993"
     inkscape:groupmode="layer"
     inkscape:label="bg"
     transform="matrix(1.25,0,0,-1.25,0,960)"><g
       id="g2995"><g
         id="g2997"><g
           id="g3003"><g
             id="g3005"><path
               d="m 0,0 1024,0 0,768 L 0,768 0,0 z"
               style="fill:url(#radialGradient3007);stroke:none"
               id="path3013"
               inkscape:connector-curvature="0" /></g></g></g></g><path
       d="m 0,0 1024,0 0,122.88 -1024,0 L 0,0 z"
       style="fill:#4f4c4d;fill-opacity:1;fill-rule:nonzero;stroke:none"
       id="path3015"
       inkscape:connector-curvature="0" /><path
       d="m 989.138,87.099 16.407,0 0,16.407 -16.407,0 0,-16.407 z"
       style="fill:#3f87cf;fill-opacity:1;fill-rule:nonzero;stroke:none"
       id="path3017"
       inkscape:connector-curvature="0" /><path
       d="m 989.164,64.069 16.407,0 0,16.409 -16.407,0 0,-16.409 z"
       style="fill:#2d9e42;fill-opacity:1;fill-rule:nonzero;stroke:none"
       id="path3019"
       inkscape:connector-curvature="0" /><path
       d="m 989.154,41.04 16.407,0 0,16.407 -16.407,0 0,-16.407 z"
       style="fill:#f57c14;fill-opacity:1;fill-rule:nonzero;stroke:none"
       id="path3021"
       inkscape:connector-curvature="0" /><g
       id="g3023"><g
         id="g3025"
         clip-path="url(#clipPath3027)"><g
           id="g3031"
           transform="translate(671.5593,47.6265)"><path
             d="m 0,0 0,3.06 c -0.103,4.903 -2.013,6.857 -6.99,6.857 -4.56,0 -6.717,-2.401 -6.717,-6.857 L -13.707,0 0,0 z m -19.272,-6.468 0,10.683 c 0,7.613 4.629,12.178 12.316,12.178 8.142,0 12.529,-4.633 12.529,-12.178 l 0,-10.683 -24.845,0 z"
             style="fill:#e9e9e9;fill-opacity:1;fill-rule:nonzero;stroke:none"
             id="path3033"
             inkscape:connector-curvature="0" /></g><g
           id="g3035"
           transform="translate(668.5519,69.1858)"><path
             d="m 0,0 c 2.801,0.141 3.772,2.124 3.772,4.904 0,1.945 -0.667,3.966 -2.437,3.966 -2.136,0 -2.503,-3.752 -3.472,-7.329 -0.969,-3.519 -2.636,-7.778 -7.041,-7.778 -5.214,0 -7.086,5.963 -7.086,10.638 0,4.902 2.339,10.14 7.683,10.14 l 0,-6.478 c -2.141,0.11 -2.872,-2.043 -2.872,-3.995 0,-1.395 0.465,-3.129 2.032,-3.129 1.875,0 2.178,3.587 3.144,7.205 0.97,3.576 2.566,6.408 6.874,6.408 6.05,0 7.983,-4.99 7.983,-10.45 0,-5.68 -2.471,-10.615 -8.576,-10.615 L 0,0 z"
             style="fill:#e9e9e9;fill-opacity:1;fill-rule:nonzero;stroke:none"
             id="path3037"
             inkscape:connector-curvature="0" /></g><g
           id="g3039"
           transform="translate(652.2882,83.4133)"><path
             d="m 0,0 0,20.165 5.203,0 0,-13.701 4.768,0 0,12.183 4.774,0 0,-12.183 4.859,0 0,13.701 5.24,0 L 24.844,0 0,0 z"
             style="fill:#e9e9e9;fill-opacity:1;fill-rule:nonzero;stroke:none"
             id="path3041"
             inkscape:connector-curvature="0" /></g><g
           id="g3043"
           transform="translate(683.6908,103.5247)"><path
             d="m 0,0 23.912,0 10.734,-38.268 0.176,0 L 45.555,0 l 23.913,0 0,-62.312 -15.273,0 0,38.224 -0.175,0 -13.09,-38.224 -12.392,0 -13.09,38.224 -0.176,0 0,-38.224 L 0,-62.312 0,0 z"
             style="fill:#bdbcbc;fill-opacity:1;fill-rule:nonzero;stroke:none"
             id="path3045"
             inkscape:connector-curvature="0" /></g><g
           id="g3047"
           transform="translate(759.7438,103.5299)"><path
             d="m 0,0 50.503,0 0,-13.002 -34.27,0 0,-11.086 30.544,0 0,-14.179 -30.544,0 0,-10.08 34.298,0 0,-13.964 L 0,-62.311 0,0 z"
             style="fill:#bdbcbc;fill-opacity:1;fill-rule:nonzero;stroke:none"
             id="path3049"
             inkscape:connector-curvature="0" /></g><g
           id="g3051"
           transform="translate(831.2392,61.9981)"><path
             d="m 0,0 c 0.348,-7.331 4.799,-9.686 11.781,-9.686 4.887,0 9.948,1.745 9.948,6.37 0,5.586 -8.9,6.545 -17.89,9.077 -8.815,2.53 -18.239,6.456 -18.239,17.977 0,13.614 13.701,18.938 25.395,18.938 12.305,0 24.96,-6.109 24.96,-20.073 l -16.233,0 c 0.262,5.586 -5.149,7.505 -10.036,7.505 -3.491,0 -7.855,-1.221 -7.855,-5.323 0,-4.887 8.989,-5.673 18.067,-8.205 8.988,-2.53 18.064,-6.718 18.064,-17.976 0,-15.796 -13.439,-20.858 -27.142,-20.858 -14.224,0 -27.053,6.284 -27.053,22.254 L 0,0 z"
             style="fill:#bdbcbc;fill-opacity:1;fill-rule:nonzero;stroke:none"
             id="path3053"
             inkscape:connector-curvature="0" /></g><g
           id="g3055"
           transform="translate(888.2397,62.1187)"><path
             d="m 0,0 c 0.348,-7.331 4.801,-9.686 11.781,-9.686 4.887,0 9.949,1.745 9.949,6.37 0,5.586 -8.901,6.545 -17.891,9.077 -8.813,2.53 -18.239,6.456 -18.239,17.977 0,13.614 13.703,18.938 25.397,18.938 12.305,0 24.958,-6.109 24.958,-20.073 l -16.231,0 c 0.262,5.586 -5.149,7.505 -10.036,7.505 -3.491,0 -7.855,-1.221 -7.855,-5.323 0,-4.887 8.989,-5.673 18.065,-8.205 8.988,-2.53 18.065,-6.718 18.065,-17.976 0,-15.796 -13.44,-20.858 -27.141,-20.858 -14.224,0 -27.053,6.284 -27.053,22.254 L 0,0 z"
             style="fill:#bdbcbc;fill-opacity:1;fill-rule:nonzero;stroke:none"
             id="path3057"
             inkscape:connector-curvature="0" /></g><g
           id="g3059"
           transform="translate(930.8383,103.4846)"><path
             d="m 0,0 50.523,0 0,-13.002 -34.29,0 0,-11.086 30.544,0 0,-14.183 -30.544,0 0,-10.076 34.298,0 0,-13.964 L 0,-62.311 0,0 z"
             style="fill:#bdbcbc;fill-opacity:1;fill-rule:nonzero;stroke:none"
             id="path3061"
             inkscape:connector-curvature="0" /></g><g
           id="g3063"
           transform="translate(788.6001,20.1832)"><path
             d="m 0,0 3.558,-0.001 c 1.464,0 5.404,0.405 5.404,6.328 0,3.828 -1.419,6.149 -5.359,6.149 L 0,12.477 0,0 z m -2.14,14.278 5.518,-0.001 c 4.955,0 7.725,-2.502 7.725,-7.659 0,-5.382 -2.365,-8.421 -7.725,-8.421 l -5.518,10e-4 0,16.08 z"
             style="fill:#e9e9e9;fill-opacity:1;fill-rule:nonzero;stroke:none"
             id="path3065"
             inkscape:connector-curvature="0" /></g><g
           id="g3067"
           transform="translate(807.6508,32.6566)"><path
             d="m 0,0 -5.36,0.001 0,1.801 L 7.498,1.801 7.498,0 2.14,0 l 0,-14.279 -2.14,0 L 0,0 z"
             style="fill:#e9e9e9;fill-opacity:1;fill-rule:nonzero;stroke:none"
             id="path3069"
             inkscape:connector-curvature="0" /></g><g
           id="g3071"
           transform="translate(831.4531,24.1868)"><path
             d="m 0,0 c 0,-4.077 -2.297,-6.193 -6.328,-6.193 -4.143,10e-4 -6.598,1.915 -6.598,6.194 l 0,10.269 2.138,0 0,-10.269 c 0,-2.86 1.601,-4.392 4.46,-4.393 2.725,0 4.188,1.532 4.188,4.392 l 0,10.27 2.14,0 L 0,0 z"
             style="fill:#e9e9e9;fill-opacity:1;fill-rule:nonzero;stroke:none"
             id="path3073"
             inkscape:connector-curvature="0" /></g><g
           id="g3075"
           transform="translate(844.5115,34.4541)"><path
             d="m 0,0 2.14,0 0,-14.278 8.512,-10e-4 0,-1.802 L 0,-16.08 0,0 z"
             style="fill:#e9e9e9;fill-opacity:1;fill-rule:nonzero;stroke:none"
             id="path3077"
             inkscape:connector-curvature="0" /></g><g
           id="g3079"
           transform="translate(865.3633,24.949)"><path
             d="m 0,0 0,-6.576 -2.14,0 0,6.576 -6.215,9.505 2.545,-0.001 4.819,-7.658 4.708,7.657 2.431,0 L 0,0 z"
             style="fill:#e9e9e9;fill-opacity:1;fill-rule:nonzero;stroke:none"
             id="path3081"
             inkscape:connector-curvature="0" /></g><g
           id="g3083"
           transform="translate(874.9787,34.4513)"><path
             d="m 0,0 2.274,-0.001 8.468,-13.041 0.046,0 0,13.04 2.025,0 0,-16.08 -2.342,0 -8.4,12.905 -0.044,0 0,-12.904 L 0,-16.08 0,0 z"
             style="fill:#e9e9e9;fill-opacity:1;fill-rule:nonzero;stroke:none"
             id="path3085"
             inkscape:connector-curvature="0" /></g><g
           id="g3087"
           transform="translate(904.9739,20.3725)"><path
             d="m 0,0 c -1.262,-1.667 -3.288,-2.387 -5.158,-2.387 -4.796,0 -7.656,3.897 -7.656,8.109 0,4.684 2.567,8.736 7.656,8.736 3.491,-10e-4 6.329,-1.576 6.914,-5.337 l -2.139,0 c -0.428,2.432 -2.365,3.535 -4.775,3.536 -3.896,0 -5.517,-3.4 -5.517,-6.824 0,-3.356 1.936,-6.418 5.517,-6.418 3.333,-0.001 5.27,2.296 5.158,5.246 l -5.135,0.001 0,1.802 7.049,-0.001 0,-8.468 -1.352,0 L 0,0 z"
             style="fill:#e9e9e9;fill-opacity:1;fill-rule:nonzero;stroke:none"
             id="path3089"
             inkscape:connector-curvature="0" /></g><g
           id="g3091"
           transform="translate(913.8667,20.1691)"><path
             d="m 0,0 5.359,-0.001 c 1.87,0 3.019,1.104 3.019,2.882 0,2.095 -1.689,2.68 -3.492,2.68 L 0,5.562 0,0 z m 0,7.364 4.279,0 c 2.432,-10e-4 3.423,0.855 3.423,2.566 0,2.252 -1.554,2.546 -3.423,2.547 L 0,12.477 0,7.364 z m -2.14,6.914 5.833,0 C 5.089,14.277 7.004,14.277 7.95,13.69 9.008,13.06 9.841,11.935 9.841,10.335 9.841,8.624 8.962,7.34 7.455,6.732 l 0,-0.044 c 1.98,-0.429 3.061,-1.892 3.061,-3.874 0,-2.342 -1.711,-4.617 -4.886,-4.617 l -7.77,10e-4 0,16.08 z"
             style="fill:#e9e9e9;fill-opacity:1;fill-rule:nonzero;stroke:none"
             id="path3093"
             inkscape:connector-curvature="0" /></g><g
           id="g3095"
           transform="translate(935.4844,24.9415)"><path
             d="m 0,0 0,-6.576 -2.14,0 0,6.576 -6.215,9.505 2.545,-0.001 4.819,-7.658 4.708,7.657 2.431,0 L 0,0 z"
             style="fill:#e9e9e9;fill-opacity:1;fill-rule:nonzero;stroke:none"
             id="path3097"
             inkscape:connector-curvature="0" /></g><g
           id="g3099"
           transform="translate(952.3053,28.6775)"><path
             d="m 0,0 c -0.18,3.243 1.757,5.652 5.134,5.652 2.77,0 5,-1.623 5,-4.595 0,-2.816 -1.891,-4.211 -3.874,-5.472 C 4.279,-5.608 2.14,-6.667 1.779,-8.626 l 8.197,-0.001 0,-1.689 -10.427,0.002 c 0.294,3.76 2.23,5.178 4.482,6.53 2.702,1.689 4.076,2.635 4.076,4.864 0,1.734 -1.396,2.883 -3.085,2.883 -2.229,0 -3.176,-2.05 -3.108,-3.964 L 0,0 z"
             style="fill:#e9e9e9;fill-opacity:1;fill-rule:nonzero;stroke:none"
             id="path3101"
             inkscape:connector-curvature="0" /></g><g
           id="g3103"
           transform="translate(971.7828,19.7791)"><path
             d="M 0,0 C 3.265,0 3.287,4.053 3.287,6.441 3.287,8.805 3.265,12.86 0,12.86 -3.265,12.861 -3.288,8.806 -3.288,6.442 -3.288,4.054 -3.265,0.001 0,0 m 0,14.549 c 5,0 5.315,-4.617 5.315,-8.131 C 5.315,2.905 5,-1.689 0,-1.689 -5,-1.688 -5.315,2.906 -5.315,6.419 -5.315,9.933 -5,14.55 0,14.549"
             style="fill:#e9e9e9;fill-opacity:1;fill-rule:nonzero;stroke:none"
             id="path3105"
             inkscape:connector-curvature="0" /></g><g
           id="g3107"
           transform="translate(987.7483,18.3585)"><path
             d="m 0,0 -1.914,0.001 0,11.44 -4.144,0 0,1.531 c 2.184,0 4.166,0.564 4.594,2.997 L 0,15.968 0,0 z"
             style="fill:#e9e9e9;fill-opacity:1;fill-rule:nonzero;stroke:none"
             id="path3109"
             inkscape:connector-curvature="0" /></g><g
           id="g3111"
           transform="translate(1001.5736,23.7846)"><path
             d="m 0,0 0,7.816 -0.045,0 L -5.36,0 0,0 z m 1.802,0 2.162,-0.001 0,-1.689 -2.162,10e-4 0,-3.738 -1.802,0 0,3.738 -7.004,0.001 0,1.847 7.274,10.382 1.532,0 0,-10.541 z"
             style="fill:#e9e9e9;fill-opacity:1;fill-rule:nonzero;stroke:none"
             id="path3113"
             inkscape:connector-curvature="0" /></g></g></g><text
       transform="matrix(1,0,0,-1,18.432,72.8916)"
       id="text3115"><tspan
         style="font-size:45.14350128px;font-variant:normal;font-weight:bold;font-stretch:normal;writing-mode:lr-tb;fill:#e9e9e9;fill-opacity:1;fill-rule:nonzero;stroke:none;font-family:Helvetica Neue LT Pro;-inkscape-font-specification:HelveticaNeueLTPro-Bd"
         sodipodi:role="line"
         id="tspan3117"
         x="0"
         y="0" /></text>
<text
       transform="matrix(1,0,0,-1,18.432,51.2583)"
       id="text3119"><tspan
         style="font-size:15.84829998px;font-variant:normal;font-weight:300;font-stretch:normal;writing-mode:lr-tb;fill:#e9e9e9;fill-opacity:1;fill-rule:nonzero;stroke:none;font-family:Helvetica Neue LT Pro;-inkscape-font-specification:HelveticaNeueLTPro-Lt"
         sodipodi:role="line"
         id="tspan3121"
         x="0"
         y="0" /></text>
<text
       transform="matrix(1,0,0,-1,18.432,19.698)"
       id="text3123"><tspan
         style="font-size:29.77549934px;font-variant:normal;font-weight:bold;font-stretch:normal;writing-mode:lr-tb;fill:#e9e9e9;fill-opacity:1;fill-rule:nonzero;stroke:none;font-family:Helvetica Neue LT Pro;-inkscape-font-specification:HelveticaNeueLTPro-Bd"
         sodipodi:role="line"
         id="tspan3125"
         x="0"
         y="0" /></text>
<text
       transform="matrix(1,0,0,-1,247.6539,20.4403)"
       id="text3127"><tspan
         style="font-size:29.77549934px;font-variant:normal;font-weight:bold;font-stretch:normal;writing-mode:lr-tb;fill:#e9e9e9;fill-opacity:1;fill-rule:nonzero;stroke:none;font-family:Helvetica Neue LT Pro;-inkscape-font-specification:HelveticaNeueLTPro-Bd"
         x="0"
         y="0"
         id="tspan3129" /></text>
<text
       transform="matrix(1,0,0,-1,258.3385,19.698)"
       id="text3131"><tspan
         style="font-size:29.77549934px;font-variant:normal;font-weight:bold;font-stretch:normal;writing-mode:lr-tb;fill:#e9e9e9;fill-opacity:1;fill-rule:nonzero;stroke:none;font-family:Helvetica Neue LT Pro;-inkscape-font-specification:HelveticaNeueLTPro-Bd"
         sodipodi:role="line"
         id="tspan3133"
         x="0"
         y="0" /></text>
</g></svg>